<?xml version="1.0" encoding="UTF-8"?><svg id="Layer_1" xmlns="http://www.w3.org/2000/svg" viewBox="0 0 260 260"><path d="m123.27,159.41c-2.4-5.78-4.04-11.98-4.95-18.36-5.85,3.13-12.75,5.29-20.55,6.39l-55.38,89.43h75.86l5.02-77.47Z" fill="#204296"/><path d="m132.47,236.88h76.01l-27.92-44.97c-2.67.36-5.43.55-8.28.55-19.51,0-33.46-8.49-42.4-21.04l2.6,65.46Z" fill="#204296"/><path d="m192.65,23.57h-51.73v3.78h51.73c10.12,0,18.36,8.24,18.36,18.36v24.11h3.78v-24.11c0-12.2-9.93-22.13-22.14-22.13Z" fill="#2ab573" stroke="#2ab573" stroke-miterlimit="10" stroke-width="3"/><path d="m209.25,79.95c-9.47-9.45-22.26-14.45-36.98-14.45-16.65,0-29.25,6.16-38.15,15.74-7.03-11.15-19.4-18.26-34.08-18.26-8.55,0-17.09,2.56-24.73,7.41v-13.44h56.84V23.12H59.79c-12.46,0-22.6,10.14-22.6,22.6v52.49l.32.07,26.78,6.16.22.05.16-.15.58-.55c5.66-5.33,12.09-7.7,20.86-7.7s13.83,3.13,13.83,8.82c0,4.52-3.91,9.36-14.9,9.36s-22.23-3.9-29.53-9.93l-1.17-.97-.33-.27-.26.33-20.57,26.06-.24.3.29.26,1.03.94c12.47,11.31,30.15,17.3,51.15,17.3,13.03,0,24.16-2.54,32.93-7.23,3.86,27.17,20.96,51.41,53.95,51.41,14.02,0,25.89-4.34,35.28-12.89,12.41-11.31,19.53-29.78,19.53-50.67s-6.33-37.46-17.83-48.94Zm-14.4-9.43c-1.69-.76-3.43-1.43-5.22-2,1.79.57,3.53,1.24,5.22,2Zm-11.64-.62c-3.47-.67-7.12-1.01-10.95-1.01-7.63,0-14.36,1.39-20.21,3.87,5.86-2.48,12.58-3.87,20.21-3.87,3.83,0,7.48.34,10.95,1.01Zm-64.92,67.41h0s0,0,0,0h0Zm-.41.24c-2.43,1.38-5.06,2.58-7.91,3.58,2.85-1,5.48-2.2,7.91-3.58h0Zm-.02-8.67c0-13.96,3.34-27.97,10.35-39.23-7.02,11.25-10.35,25.27-10.35,39.23,0,2.66.13,5.32.37,7.97h0c-.24-2.64-.37-5.31-.37-7.97Zm3.64,6.35c8.45-6.02,13.67-14.7,15.08-25.59-1.41,10.89-6.63,19.57-15.08,25.59h0Zm-.04-.49c-.14-1.95-.21-3.91-.21-5.87,0-14.8,3.93-29.66,12.23-40.84,1.94,4.48,3.07,9.63,3.07,15.43,0,13.55-5.34,24.22-15.09,31.27Zm-21.44-68.39c3.5,0,7.04.5,10.47,1.47-3.43-.98-6.97-1.47-10.47-1.47-1.69,0-3.38.11-5.06.32,1.68-.21,3.36-.32,5.06-.32Zm-21.84,6.23c-1.33.79-2.63,1.65-3.9,2.59,1.27-.94,2.58-1.8,3.9-2.59Zm50.56-46.09h0v27.05h0v-27.05Zm-82.02,1.28c3.66-2.67,8.18-4.25,13.05-4.25h0c-4.87,0-9.39,1.58-13.05,4.25-.61.45-1.2.92-1.76,1.43.56-.5,1.15-.98,1.76-1.43Zm17.64,76.26l-26.78-6.16,26.78,6.16.29-.27-.29.27Zm21.72-8.36c-4.44,0-8.29.6-11.75,1.88,3.46-1.28,7.31-1.88,11.75-1.88,1.64,0,3.14.11,4.51.32-1.37-.21-2.87-.31-4.51-.31Zm-1.07,21.98c5.41,0,9.42-1.11,12.28-2.81-2.86,1.7-6.87,2.81-12.28,2.81-3.01,0-6.05-.28-9.05-.8,3,.53,6.05.8,9.05.8Zm-21.33-7.77c-3.16-1.47-6.05-3.24-8.47-5.24,2.42,2,5.3,3.76,8.47,5.24Zm-30.21,19.85h0s.72.66.72.66l-.72-.66Zm4.64-.41l16.47-20.87c8.11,6.02,19.45,9.6,30.42,9.6,13.81,0,18.7-7.09,18.7-13.16,0-3.8-1.72-12.63-17.63-12.63-9.31,0-16.53,2.56-22.71,8.05l-22.4-5.16v-49.46c0-10.36,8.43-18.79,18.79-18.79h68.56v26.22h-56.84v24.62l.66-.49,2.37-1.75c7.75-5.72,16.57-8.74,25.5-8.74,12.11,0,24.75,6.02,31.52,17.46-9.57,12.02-14.1,28.36-14.1,44.65,0,2.74.14,5.48.39,8.2-8.37,4.81-19.33,7.39-32.47,7.39-19.25,0-35.58-5.23-47.26-15.14Zm80.59,11.49h0c1.82,13,6.68,25.34,14.89,34.65-8.21-9.31-13.07-21.65-14.89-34.65Zm9.45,21.07c.67,1.33,1.37,2.64,2.13,3.91-.76-1.27-1.46-2.57-2.13-3.91Zm-6.28-22.95c11.84-7.73,18.48-19.95,18.48-35.47,0-6.82-1.52-13.13-4.24-18.65,8.31-9.42,20.24-15.52,36.14-15.52,13.89,0,25.42,4.49,34.29,13.34,10.78,10.76,16.71,27.18,16.71,46.25s-6.67,37.27-18.29,47.86c-8.66,7.9-19.67,11.9-32.72,11.9-31.25,0-47.17-23.61-50.38-49.7Zm67.82,47.34c1.23-.42,2.42-.9,3.6-1.42,1.76-.78,3.45-1.67,5.09-2.67-1.63,1-3.33,1.89-5.09,2.67-1.17.52-2.37.99-3.6,1.42Zm15.55-9.24c10.24-9.34,16.67-23.95,18.11-40.81-1.45,16.86-7.87,31.47-18.11,40.81Z" fill="#2ab573" stroke="#2ab573" stroke-miterlimit="10" stroke-width="3"/><path d="m177.62,162.44h-9.7c-7.41,0-13.44-6.03-13.44-13.44v-40.04c0-7.41,6.03-13.44,13.44-13.44h9.7c7.41,0,13.44,6.03,13.44,13.44v40.04c0,7.41-6.03,13.44-13.44,13.44Zm-9.7-62.5c-4.97,0-9.02,4.04-9.02,9.02v40.04c0,4.97,4.05,9.02,9.02,9.02h9.7c4.97,0,9.02-4.04,9.02-9.02v-40.04c0-4.97-4.05-9.02-9.02-9.02h-9.7Z" fill="#2ab573" stroke="#2ab573" stroke-miterlimit="10" stroke-width="3"/><path d="m44.39,217.77l2.3-3.02c-.44-.44-.86-.9-1.26-1.38-2.65-3.26-4.11-7.37-4.11-11.58v-56.66h-3.78v56.66c0,5.08,1.76,10.04,4.96,13.96.59.72,1.23,1.39,1.89,2.02Z" fill="#2ab573" stroke="#2ab573" stroke-miterlimit="10" stroke-width="3"/><path d="m214.37,187.05h-3.36v14.74c0,5.7-2.65,10.99-7.06,14.44l2.28,3.01c5.34-4.16,8.55-10.58,8.55-17.45v-14.74h-.41Z" fill="#2ab573" stroke="#2ab573" stroke-miterlimit="10" stroke-width="3"/></svg>