<?xml version="1.0" encoding="UTF-8"?>
<svg id="Laag_2" data-name="Laag 2" xmlns="http://www.w3.org/2000/svg" viewBox="0 0 345.41 309.52">
  <defs>
    <style>
      .cls-1 {
        fill: #5bc5f2;
      }
    </style>
  </defs>
  <path class="cls-1" d="m193.18,124.8l-25.41,14.03-25.41-14.03v29.31l15.23,8.79c6.3,3.64,14.07,3.64,20.37,0l15.23-8.79v-29.31Z"/>
  <path class="cls-1" d="m232.03,33.95L177.95,2.73c-6.3-3.64-14.07-3.64-20.37,0l-54.08,31.22c-6.3,3.64-10.19,10.36-10.19,17.64v62.45c0,7.28,3.88,14,10.19,17.64l9.41,5.44V55.04c0-3.38,3.66-5.49,6.59-3.8l48.3,27.21,48.23-27.21c2.93-1.69,6.59.42,6.59,3.8v82.08l9.41-5.44c6.3-3.64,10.19-10.36,10.19-17.64v-62.45c0-7.28-3.88-14-10.19-17.64Z"/>
  <path class="cls-1" d="m.26,174.5c0-5.1,3.19-8.51,7.66-8.51s7.66,3.4,7.66,8.51v20.84h.21c3.19-3.93,9.14-5.32,13.93-5.32,12.01,0,20.95,7.66,20.95,20.63v29.35c0,5.1-3.19,8.51-7.66,8.51s-7.66-3.4-7.66-8.51v-26.69c0-7.12-4.47-10.53-9.99-10.53-6.27,0-9.78,4.57-9.78,10.53v26.69c0,5.1-3.19,8.51-7.66,8.51s-7.66-3.4-7.66-8.51v-65.5Z"/>
  <path class="cls-1" d="m114.14,219.69c0,15.95-10.95,29.45-27.43,29.45s-27.43-13.5-27.43-29.45,11.27-29.66,27.43-29.66,27.43,14.14,27.43,29.66Zm-39.55,0c0,7.34,3.83,15.42,12.12,15.42s12.12-8.08,12.12-15.42-3.72-15.63-12.12-15.63-12.12,8.29-12.12,15.63Z"/>
  <path class="cls-1" d="m119.03,204.06c-1.06-3.08-1.59-5-1.59-7.23,0-3.4,3.19-6.17,7.66-6.17,3.72,0,6.38,2.45,7.23,6.06l8.82,29.24h.21l8.93-28.6c1.17-4.15,3.3-6.7,7.76-6.7s6.59,2.55,7.76,6.7l8.93,28.6h.21l8.82-29.24c.85-3.62,3.51-6.06,7.23-6.06,4.47,0,7.66,2.76,7.66,7.44,0,1.7-.74,3.4-1.49,5.74l-13.08,36.89c-1.59,4.47-4.25,7.76-9.25,7.76-4.68,0-7.44-2.66-8.83-7.12l-7.87-24.67h-.21l-7.87,24.67c-1.38,4.47-4.15,7.12-8.83,7.12-5,0-7.66-3.3-9.25-7.76l-12.97-36.68Z"/>
  <path class="cls-1" d="m218.24,224.69c1.06,7.55,7.34,11.06,14.46,11.06,7.87,0,13.29-6.17,17.33-6.17,3.3,0,6.27,3.3,6.27,6.59,0,6.59-13.61,12.97-24.99,12.97-17.22,0-28.71-12.55-28.71-29.45,0-15.52,11.27-29.66,27.43-29.66s27.54,15.1,27.54,27.86c0,4.57-2.02,6.8-6.7,6.8h-32.64Zm24.03-10.21c-.85-6.7-5.1-11.7-12.23-11.7s-11.38,5.21-12.12,11.7h24.35Z"/>
  <path class="cls-1" d="m297.35,207.89c-2.87,0-8.72-4.47-13.72-4.47-2.76,0-5.21,1.28-5.21,4.25,0,7.12,26.58,6.06,26.58,23.5,0,10.21-8.61,17.97-21.8,17.97-8.61,0-21.37-4.89-21.37-11.8,0-2.34,2.34-6.8,6.59-6.8,5.95,0,8.61,5.21,15.84,5.21,4.68,0,6.06-1.49,6.06-4.36,0-7.02-26.58-5.95-26.58-23.5,0-10.63,8.61-17.86,20.73-17.86,7.55,0,19.14,3.51,19.14,11.06,0,3.51-2.66,6.8-6.27,6.8Z"/>
  <path class="cls-1" d="m318.41,204.7h-3.4c-4.15,0-6.7-2.55-6.7-6.7,0-3.83,2.87-6.7,6.7-6.7h3.4v-9.14c0-5.1,3.19-8.51,7.66-8.51s7.66,3.4,7.66,8.51v9.14h4.36c3.93,0,7.34,1.81,7.34,6.7s-3.4,6.7-7.34,6.7h-4.36v35.3c0,5.1-3.19,8.51-7.66,8.51s-7.66-3.4-7.66-8.51v-35.3Z"/>
  <path class="cls-1" d="m10.32,287.43c2.19,0,6.45.72,6.45,3.36,0,1.08-.75,2.01-1.86,2.01-1.23,0-2.07-1.05-4.59-1.05-3.72,0-5.64,3.15-5.64,6.81s1.95,6.63,5.64,6.63c2.52,0,3.54-1.26,4.77-1.26,1.35,0,1.98,1.35,1.98,2.04,0,2.88-4.53,3.54-6.75,3.54-6.09,0-10.32-4.83-10.32-11.04s4.2-11.04,10.32-11.04Z"/>
  <path class="cls-1" d="m19.78,290.13c0-1.44.81-2.34,2.31-2.34h5.28c4.62,0,7.47,2.07,7.47,6.78,0,3.3-2.49,5.19-5.55,5.67l5.1,5.46c.42.45.6.9.6,1.32,0,1.17-.93,2.31-2.25,2.31-.54,0-1.26-.21-1.74-.78l-6.66-8.07h-.06v6.51c0,1.5-.96,2.34-2.25,2.34s-2.25-.84-2.25-2.34v-16.87Zm4.5,7.11h3.09c1.65,0,2.79-.99,2.79-2.67s-1.14-2.64-2.79-2.64h-3.09v5.31Z"/>
  <path class="cls-1" d="m37.28,290.4c0-1.5.75-2.61,2.34-2.61h7.44c1.44,0,2.13,1.02,2.13,2.07s-.72,2.07-2.13,2.07h-5.28v4.38h4.92c1.47,0,2.19,1.02,2.19,2.07s-.75,2.07-2.19,2.07h-4.92v4.56h5.55c1.44,0,2.13,1.02,2.13,2.07s-.72,2.07-2.13,2.07h-7.74c-1.32,0-2.31-.9-2.31-2.25v-16.51Z"/>
  <path class="cls-1" d="m56.73,289.92c.51-1.38,1.68-2.49,3.21-2.49s2.7,1.05,3.21,2.49l5.88,16.33c.18.48.24.9.24,1.11,0,1.17-.96,1.98-2.07,1.98-1.26,0-1.89-.66-2.19-1.56l-.9-2.82h-8.34l-.9,2.79c-.3.93-.93,1.59-2.16,1.59s-2.22-.9-2.22-2.1c0-.48.15-.84.21-.99l6.03-16.33Zm.33,10.89h5.7l-2.79-8.7h-.06l-2.85,8.7Z"/>
  <path class="cls-1" d="m72.12,291.93h-3.27c-1.44,0-2.04-1.05-2.04-2.07s.75-2.07,2.04-2.07h11.04c1.29,0,2.04,1.02,2.04,2.07s-.6,2.07-2.04,2.07h-3.27v15.06c0,1.5-.96,2.34-2.25,2.34s-2.25-.84-2.25-2.34v-15.06Z"/>
  <path class="cls-1" d="m83.53,289.95c0-1.5.96-2.34,2.25-2.34s2.25.84,2.25,2.34v17.05c0,1.5-.96,2.34-2.25,2.34s-2.25-.84-2.25-2.34v-17.05Z"/>
  <path class="cls-1" d="m90.42,290.88c-.15-.39-.21-.69-.21-1.11,0-1.26,1.11-2.16,2.31-2.16,1.02,0,1.65.66,2.04,1.47l4.65,12.48,4.65-12.48c.39-.81,1.02-1.47,2.04-1.47,1.2,0,2.31.9,2.31,2.16,0,.42-.06.72-.21,1.11l-6.57,16.72c-.39.96-.9,1.74-2.22,1.74s-1.83-.78-2.22-1.74l-6.57-16.72Z"/>
  <path class="cls-1" d="m109.51,290.4c0-1.5.75-2.61,2.34-2.61h7.44c1.44,0,2.13,1.02,2.13,2.07s-.72,2.07-2.13,2.07h-5.28v4.38h4.92c1.47,0,2.19,1.02,2.19,2.07s-.75,2.07-2.19,2.07h-4.92v4.56h5.55c1.44,0,2.13,1.02,2.13,2.07s-.72,2.07-2.13,2.07h-7.74c-1.32,0-2.31-.9-2.31-2.25v-16.51Z"/>
  <path class="cls-1" d="m137.22,291.93h-3.27c-1.44,0-2.04-1.05-2.04-2.07s.75-2.07,2.04-2.07h11.04c1.29,0,2.04,1.02,2.04,2.07s-.6,2.07-2.04,2.07h-3.27v15.06c0,1.5-.96,2.34-2.25,2.34s-2.25-.84-2.25-2.34v-15.06Z"/>
  <path class="cls-1" d="m148.3,290.4c0-1.5.75-2.61,2.34-2.61h7.44c1.44,0,2.13,1.02,2.13,2.07s-.72,2.07-2.13,2.07h-5.28v4.38h4.92c1.47,0,2.19,1.02,2.19,2.07s-.75,2.07-2.19,2.07h-4.92v4.56h5.55c1.44,0,2.13,1.02,2.13,2.07s-.72,2.07-2.13,2.07h-7.74c-1.32,0-2.31-.9-2.31-2.25v-16.51Z"/>
  <path class="cls-1" d="m171.83,287.43c2.19,0,6.45.72,6.45,3.36,0,1.08-.75,2.01-1.86,2.01-1.23,0-2.07-1.05-4.59-1.05-3.72,0-5.64,3.15-5.64,6.81s1.95,6.63,5.64,6.63c2.52,0,3.54-1.26,4.77-1.26,1.35,0,1.98,1.35,1.98,2.04,0,2.88-4.53,3.54-6.75,3.54-6.09,0-10.32-4.83-10.32-11.04s4.2-11.04,10.32-11.04Z"/>
  <path class="cls-1" d="m180.88,289.95c0-1.5.96-2.34,2.25-2.34s2.25.84,2.25,2.34v6.36h9.42v-6.36c0-1.5.96-2.34,2.25-2.34s2.25.84,2.25,2.34v17.05c0,1.5-.96,2.34-2.25,2.34s-2.25-.84-2.25-2.34v-6.54h-9.42v6.54c0,1.5-.96,2.34-2.25,2.34s-2.25-.84-2.25-2.34v-17.05Z"/>
  <path class="cls-1" d="m202.43,289.95c0-1.5.96-2.34,2.25-2.34.57,0,1.5.45,1.89.99l9.51,12.69h.06v-11.34c0-1.5.96-2.34,2.25-2.34s2.25.84,2.25,2.34v17.05c0,1.5-.96,2.34-2.25,2.34-.57,0-1.47-.45-1.89-.99l-9.51-12.54h-.06v11.19c0,1.5-.96,2.34-2.25,2.34s-2.25-.84-2.25-2.34v-17.05Z"/>
  <path class="cls-1" d="m222.93,298.47c0-6.24,4.2-11.04,10.32-11.04s10.32,4.95,10.32,11.04-4.17,11.04-10.32,11.04-10.32-4.83-10.32-11.04Zm15.97,0c0-3.63-1.89-6.9-5.64-6.9s-5.64,3.27-5.64,6.9,1.83,6.9,5.64,6.9,5.64-3.24,5.64-6.9Z"/>
  <path class="cls-1" d="m246.04,289.95c0-1.5.96-2.34,2.25-2.34s2.25.84,2.25,2.34v15.07h5.34c1.53,0,2.19,1.14,2.16,2.16-.06.99-.84,1.98-2.16,1.98h-7.5c-1.47,0-2.34-.96-2.34-2.46v-16.75Z"/>
  <path class="cls-1" d="m256.62,298.47c0-6.24,4.2-11.04,10.32-11.04s10.32,4.95,10.32,11.04-4.17,11.04-10.32,11.04-10.32-4.83-10.32-11.04Zm15.97,0c0-3.63-1.89-6.9-5.64-6.9s-5.64,3.27-5.64,6.9,1.83,6.9,5.64,6.9,5.64-3.24,5.64-6.9Z"/>
  <path class="cls-1" d="m296.45,296.49c1.89,0,2.64.96,2.64,2.88,0,5.79-3.78,10.14-9.78,10.14s-10.32-4.83-10.32-11.04,4.2-11.04,10.32-11.04c4.53,0,8.25,2.13,8.25,4.23,0,1.29-.81,2.1-1.86,2.1-2.04,0-2.46-2.19-6.39-2.19s-5.64,3.27-5.64,6.9,1.83,6.9,5.64,6.9c2.37,0,5.1-1.32,5.1-4.74h-3.06c-1.23,0-2.1-.87-2.1-2.1s.96-2.04,2.1-2.04h5.1Z"/>
  <path class="cls-1" d="m301.13,289.95c0-1.5.96-2.34,2.25-2.34s2.25.84,2.25,2.34v17.05c0,1.5-.96,2.34-2.25,2.34s-2.25-.84-2.25-2.34v-17.05Z"/>
  <path class="cls-1" d="m308.94,290.4c0-1.5.75-2.61,2.34-2.61h7.44c1.44,0,2.13,1.02,2.13,2.07s-.72,2.07-2.13,2.07h-5.28v4.38h4.92c1.47,0,2.19,1.02,2.19,2.07s-.75,2.07-2.19,2.07h-4.92v4.56h5.55c1.44,0,2.13,1.02,2.13,2.07s-.72,2.07-2.13,2.07h-7.74c-1.32,0-2.31-.9-2.31-2.25v-16.51Z"/>
  <path class="cls-1" d="m336.07,290.43c0,1.17-.78,2.22-2.01,2.22s-2.19-.9-3.99-.9c-1.29,0-2.46.69-2.46,1.95,0,3.09,10.02,1.11,10.02,8.85,0,4.29-3.54,6.96-7.68,6.96-2.31,0-7.29-.54-7.29-3.36,0-1.17.78-2.13,2.01-2.13,1.41,0,3.09,1.17,5.04,1.17s3.06-1.11,3.06-2.58c0-3.54-10.02-1.41-10.02-8.37,0-4.2,3.45-6.81,7.44-6.81,1.68,0,5.88.63,5.88,3Z"/>
  <g>
    <path class="cls-1" d="m74.87,261.92c.18-1.08,1.35-2.31,2.94-2.31,1.5,0,2.67,1.08,3,2.16l3.54,11.89h.06l3.54-11.89c.33-1.08,1.5-2.16,3-2.16,1.59,0,2.76,1.23,2.94,2.31l2.79,16.75c.03.18.03.36.03.51,0,1.32-.96,2.16-2.16,2.16-1.53,0-2.13-.69-2.34-2.1l-1.77-12.22h-.06l-3.6,12.58c-.21.72-.78,1.74-2.4,1.74s-2.19-1.02-2.4-1.74l-3.6-12.58h-.06l-1.77,12.22c-.21,1.41-.81,2.1-2.34,2.1-1.2,0-2.16-.84-2.16-2.16,0-.15,0-.33.03-.51l2.79-16.75Z"/>
    <path class="cls-1" d="m98.44,261.95c0-1.5.96-2.34,2.25-2.34s2.25.84,2.25,2.34v10.48c0,2.76,1.77,4.95,4.62,4.95s4.59-2.31,4.59-4.95v-10.48c0-1.5.96-2.34,2.25-2.34s2.25.84,2.25,2.34v10.72c0,5.04-4.14,8.85-9.1,8.85s-9.12-3.75-9.12-8.85v-10.72Z"/>
    <path class="cls-1" d="m119.48,261.95c0-1.5.96-2.34,2.25-2.34s2.25.84,2.25,2.34v15.07h5.34c1.53,0,2.19,1.14,2.16,2.16-.06.99-.84,1.98-2.16,1.98h-7.5c-1.47,0-2.34-.96-2.34-2.46v-16.75Z"/>
    <path class="cls-1" d="m132.84,263.93h-3.27c-1.44,0-2.04-1.05-2.04-2.07s.75-2.07,2.04-2.07h11.05c1.29,0,2.04,1.02,2.04,2.07s-.6,2.07-2.04,2.07h-3.27v15.07c0,1.5-.96,2.34-2.25,2.34s-2.25-.84-2.25-2.34v-15.07Z"/>
    <path class="cls-1" d="m143.95,261.95c0-1.5.96-2.34,2.25-2.34s2.25.84,2.25,2.34v17.05c0,1.5-.96,2.34-2.25,2.34s-2.25-.84-2.25-2.34v-17.05Z"/>
    <path class="cls-1" d="m153.64,261.92c.18-1.08,1.35-2.31,2.94-2.31,1.5,0,2.67,1.08,3,2.16l3.54,11.89h.06l3.54-11.89c.33-1.08,1.5-2.16,3-2.16,1.59,0,2.76,1.23,2.94,2.31l2.79,16.75c.03.18.03.36.03.51,0,1.32-.96,2.16-2.16,2.16-1.53,0-2.13-.69-2.34-2.1l-1.77-12.22h-.06l-3.6,12.58c-.21.72-.78,1.74-2.4,1.74s-2.19-1.02-2.4-1.74l-3.6-12.58h-.06l-1.77,12.22c-.21,1.41-.81,2.1-2.34,2.1-1.2,0-2.16-.84-2.16-2.16,0-.15,0-.33.03-.51l2.79-16.75Z"/>
    <path class="cls-1" d="m177.87,262.4c0-1.5.75-2.61,2.34-2.61h7.44c1.44,0,2.13,1.02,2.13,2.07s-.72,2.07-2.13,2.07h-5.28v4.38h4.92c1.47,0,2.19,1.02,2.19,2.07s-.75,2.07-2.19,2.07h-4.92v4.56h5.55c1.44,0,2.13,1.02,2.13,2.07s-.72,2.07-2.13,2.07h-7.74c-1.32,0-2.31-.9-2.31-2.25v-16.51Z"/>
    <path class="cls-1" d="m192.07,262.1c0-1.38.96-2.31,2.31-2.31h4.98c6.72,0,10.56,4.32,10.56,10.99,0,6.3-4.08,10.38-10.27,10.38h-5.22c-.99,0-2.37-.54-2.37-2.25v-16.81Zm4.5,14.92h3.03c3.87,0,5.64-2.85,5.64-6.45,0-3.84-1.8-6.63-5.94-6.63h-2.73v13.09Z"/>
    <path class="cls-1" d="m212.39,261.95c0-1.5.96-2.34,2.25-2.34s2.25.84,2.25,2.34v17.05c0,1.5-.96,2.34-2.25,2.34s-2.25-.84-2.25-2.34v-17.05Z"/>
    <path class="cls-1" d="m224.85,261.92c.51-1.38,1.68-2.49,3.21-2.49s2.7,1.05,3.21,2.49l5.88,16.33c.18.48.24.9.24,1.11,0,1.17-.96,1.98-2.07,1.98-1.26,0-1.89-.66-2.19-1.56l-.9-2.82h-8.34l-.9,2.79c-.3.93-.93,1.59-2.16,1.59s-2.22-.9-2.22-2.1c0-.48.15-.84.21-.99l6.03-16.33Zm.33,10.89h5.7l-2.79-8.7h-.06l-2.85,8.7Z"/>
  </g>
  <path class="cls-1" d="m260.18,272.97l1.17-1.35c.78-.9,1.32-1.38,2.28-1.38.87,0,1.65.75,1.65,1.89,0,.81-.69,1.77-1.65,2.85l-.75.81,2.04,2.31c.42.48.66.81.66,1.5,0,1.02-.96,2.01-2.1,2.01-.69,0-1.14-.21-1.59-.69l-2.07-2.16c-1.95,1.71-3.93,2.85-6.6,2.85-4.02,0-7.35-2.28-7.35-6.48,0-2.97,2.07-5.16,4.53-6.51-1.17-1.17-1.98-2.37-1.98-4.05,0-3.42,3.21-5.04,6.3-5.04,2.7,0,6.12,1.53,6.12,4.71,0,2.4-1.89,4.26-3.81,5.25l3.15,3.48Zm-7.41-1.89c-1.35.87-2.58,1.92-2.58,3.63,0,1.89,1.29,2.94,3.12,2.94,1.62,0,2.67-.66,3.81-1.74l-4.35-4.83Zm1.95-8.13c-.78,0-1.8.6-1.8,1.5s.42,1.44,1.59,2.58c.9-.45,2.19-1.26,2.19-2.34,0-1.35-1.2-1.74-1.98-1.74Z"/>
</svg>